<svg width="181" height="117" viewBox="0 0 181 117" fill="none" xmlns="http://www.w3.org/2000/svg">
<g clip-path="url(#clip0_107_93)">
<path d="M79.2605 37.7831V42.4097C79.2605 46.2651 77.904 48 74.0281 48H72.0902C68.2143 48 66.8578 46.0722 66.8578 42.4097V21.5903C66.8578 17.7349 68.2143 16 72.0902 16H74.0281C77.904 16 79.2605 17.9278 79.2605 21.5903V26.2169H94.9576V37.7831H79.2605ZM21.1232 38.3615L25.7742 12.9157H26.937L31.5879 38.3615H21.1232ZM0 62.6506H16.666L18.6039 51.8554H34.3009L36.2389 62.6506H53.4863L51.3545 52.4337H52.1298C54.8428 59.9518 61.0442 64 71.5089 64H73.4467C87.2059 64 93.9886 56.8675 94.3761 44.7228H95.3451V62.6506H135.46V51.4699H136.041C139.142 59.9518 145.731 64 156.195 64H158.52C173.249 64 181 56.4819 181 42.024V1.3494H163.366V42.7952C163.366 46.2651 162.009 48.1928 158.327 48.1928H156.39C152.513 48.1928 151.351 46.2651 151.351 42.7952V1.3494H133.716V46.0722H112.592V1.3494H94.9576V19.2772H93.9886C93.9886 7.51807 87.7872 0 73.8342 0H71.1212C56.0056 0 49.2229 7.71085 49.2229 21.5903V42.2169C49.2229 42.9879 49.2229 43.7591 49.2229 44.5301H48.6415L40.6961 1.3494H12.7902L0 62.6506Z" fill="#2B2B2B"/>
<g clip-path="url(#clip1_107_93)">
<path d="M5.24 94.6C5.24 81.928 15.544 71.56 28.216 71.56C40.888 71.56 51.256 81.928 51.256 94.6C51.256 107.272 40.888 117.64 28.216 117.64C15.544 117.64 5.24 107.272 5.24 94.6ZM10.808 94.6C10.808 104.2 18.616 112.072 28.216 112.072C37.88 112.072 45.624 104.2 45.624 94.6C45.624 84.936 37.88 77.192 28.216 77.192C18.616 77.192 10.808 84.936 10.808 94.6ZM16.824 94.728C16.824 88.008 22.2 82.696 28.792 82.696C31.352 82.696 34.04 83.464 36.152 85.128C36.728 85.64 36.792 86.408 36.28 86.984L33.208 90.056C32.824 90.44 32.12 90.568 31.672 90.248C30.776 89.608 29.816 89.416 28.792 89.416C25.912 89.416 23.8 91.784 23.8 94.536C23.8 97.416 25.912 99.656 28.792 99.656C29.816 99.656 30.712 99.464 31.608 98.824C32.056 98.504 32.76 98.632 33.144 99.016L36.344 102.216C36.792 102.728 36.792 103.496 36.28 104.008C34.04 105.928 31.544 106.696 28.792 106.696C22.2 106.696 16.824 101.32 16.824 94.728ZM57.577 115.784V114.504C61.289 109.64 70.761 96.776 74.537 91.016C75.369 89.736 76.201 87.944 76.201 86.152C76.201 83.72 74.153 81.544 70.569 81.544C67.945 81.544 65.577 83.4 64.361 84.744C63.849 85.256 63.081 85.256 62.569 84.744L58.665 80.776C58.217 80.392 58.153 79.624 58.601 79.112C58.601 79.112 63.785 72.84 71.401 72.84C80.553 72.84 85.929 78.664 85.929 85.768C85.929 89.16 84.969 91.08 83.433 94.088C81.385 97.736 76.137 104.584 73.129 108.808H84.393C85.033 108.808 85.609 109.384 85.609 110.024V115.784C85.609 116.424 85.033 117 84.393 117H58.793C58.089 117 57.577 116.424 57.577 115.784ZM103.188 117.64C92.756 117.64 86.804 109.256 86.804 95.24C86.804 81.224 92.756 72.84 103.188 72.84C113.62 72.84 119.572 81.224 119.572 95.24C119.572 109.256 113.62 117.64 103.188 117.64ZM103.188 108.36C107.092 108.36 109.268 103.688 109.268 95.24C109.268 86.856 107.092 82.12 103.188 82.12C99.284 82.12 97.108 86.856 97.108 95.24C97.108 103.688 99.284 108.36 103.188 108.36ZM118.557 115.784V114.504C122.269 109.64 131.741 96.776 135.517 91.016C136.349 89.736 137.181 87.944 137.181 86.152C137.181 83.72 135.133 81.544 131.549 81.544C128.925 81.544 126.557 83.4 125.341 84.744C124.829 85.256 124.061 85.256 123.549 84.744L119.645 80.776C119.197 80.392 119.133 79.624 119.581 79.112C119.581 79.112 124.765 72.84 132.381 72.84C141.533 72.84 146.909 78.664 146.909 85.768C146.909 89.16 145.949 91.08 144.413 94.088C142.365 97.736 137.117 104.584 134.109 108.808H145.373C146.013 108.808 146.589 109.384 146.589 110.024V115.784C146.589 116.424 146.013 117 145.373 117H119.773C119.069 117 118.557 116.424 118.557 115.784ZM146.12 111.944C145.736 111.496 145.8 110.792 146.184 110.344L150.216 106.312C150.664 105.864 151.304 105.8 151.816 106.184C151.816 106.184 155.784 109.128 158.856 109.128C161.608 109.128 164.424 106.824 164.424 104.008C164.424 101.192 161.544 98.824 156.808 98.824H153.224C152.584 98.824 152.008 98.248 152.008 97.608V92.296C152.008 91.592 152.584 91.08 153.224 91.08H156.808C161.288 91.08 163.656 88.904 163.656 86.152C163.656 83.4 161.288 81.352 158.536 81.352C155.72 81.352 153.928 82.824 152.968 83.912C152.52 84.424 151.752 84.424 151.24 83.976L147.336 80.136C146.824 79.688 146.888 78.92 147.336 78.472C147.336 78.472 152.584 72.84 159.56 72.84C166.984 72.84 173.384 77.384 173.384 84.552C173.384 89.48 169.672 93.128 166.792 94.472V94.664C169.8 95.944 174.536 99.912 174.536 105.416C174.536 112.392 168.456 117.64 159.624 117.64C151.56 117.64 147.464 113.672 146.12 111.944Z" fill="#2B2B2B"/>
</g>
</g>
<defs>
<clipPath id="clip0_107_93">
<rect width="181" height="117" fill="white"/>
</clipPath>
<clipPath id="clip1_107_93">
<rect width="175" height="45" fill="white" transform="translate(3 72)"/>
</clipPath>
</defs>
</svg>
